{"title":"Romeo Ranjha (2014) 720p - x264 - Esub [DDR ExclusivE]","uid":11523833,"size":1569518520,"categoryP":"video","categoryS":"hd___movies","magnet":"?xt=urn:btih:c95acc96f4a651670446b38633a34a2bfefd4167&amp;dn=Romeo+Ranjha+%282014%29+720p+-+x264+-+Esub+%5BDDR+ExclusivE%5D&amp;tr=udp%3A%2F%2Ftracker.openbittorrent.com%3A80&amp;tr=udp%3A%2F%2Fopen.demonii.com%3A1337&amp;tr=udp%3A%2F%2Ftracker.coppersurfer.tk%3A6969&amp;tr=udp%3A%2F%2Fexodus.desync.com%3A6969","seeders":1,"leechers":1,"uploader":"SaM","files":2,"time":1416507046,"description":"Movie Info\nMovie Name : Romeo Ranjha\nStarring : Jazzy B, Garry Sandhu, Monica Bedi, Rana Ranbir &amp; More\nDirected : Navaniat Singh\nProducer : Basic Brothers\nIMDB : http://www.imdb.com/title/tt3671074/\nMovie Release Date : 16 May 2014\nRipper : AnMoL\nSource : DVD9 My Own Collection\nAudio : Punjabi\nSubtitle : English\nTech Info\nFormat : Matroska\nFormat version : Version 2\nFile size : 1.46 GiB\nDuration : 2h 3mn\nOverall bit rate : 1 693 Kbps\n\nVideo\nID : 1\nFormat : AVC\nFormat/Info : Advanced Video Codec\nFormat profile : &lt;a class=&quot;__cf_email__&quot; href=&quot;/cdn-cgi/l/email-protection&quot; data-cfemail=&quot;145c7d737c5458203a25&quot;&gt;[email&amp;#160;protected]&lt;/a&gt;&lt;script cf-hash='f9e31' type=&quot;text/javascript&quot;&gt;\n/* &lt;![CDATA[ */!function(){try{var t=&quot;currentScript&quot;in document?document.currentScript:function(){for(var t=document.getElementsByTagName(&quot;script&quot;),e=t.length;e--;)if(t[e].getAttribute(&quot;cf-hash&quot;))return t[e]}();if(t&amp;&amp;t.previousSibling){var e,r,n,i,c=t.previousSibling,a=c.getAttribute(&quot;data-cfemail&quot;);if(a){for(e=&quot;&quot;,r=parseInt(a.substr(0,2),16),n=2;a.length-n;n+=2)i=parseInt(a.substr(n,2),16)^r,e+=String.fromCharCode(i);e=document.createTextNode(e),c.parentNode.replaceChild(e,c)}}}catch(u){}}();/* ]]&gt; */&lt;/script&gt;\nFormat settings, CABAC : Yes\nFormat settings, ReFrames : 8 frames\nCodec ID : V_MPEG4/ISO/AVC\nDuration : 2h 3mn\nBit rate : 1 246 Kbps\nWidth : 1 280 pixels\nHeight : 528 pixels\nDisplay aspect ratio : 2.40:1\nFrame rate mode : Constant\nFrame rate : 23.976 fps\nColor space : YUV\nChroma subsampling : 4:2:0\nBit depth : 8 bits\nScan type : Progressive\nBits/(Pixel*Frame) : 0.077\nStream size : 1.05 GiB (72%)\n\nAudio\nID : 2\nFormat : AC-3\nFormat/Info : Audio Coding 3\nMode extension : CM (complete main)\nFormat settings, Endianness : Big\nCodec ID : A_AC3\nDuration : 2h 3mn\nBit rate mode : Constant\nBit rate : 448 Kbps\nChannel(s) : 6 channels\nChannel positions : Front: L C R, Side: L R, LFE\nSampling rate : 48.0 KHz\nBit depth : 16 bits\nCompression mode : Lossy\nStream size : 396 MiB (26%)\n\nScreen Shot\n &lt;a href=&quot;\nhttp://i.imgur.com/T6ZKiAy.png&quot; rel=&quot;nofollow&quot; target=&quot;_NEW&quot;&gt;\nhttp://i.imgur.com/T6ZKiAy.png&lt;/a&gt; &lt;a href=&quot;\nhttp://i.imgur.com/zQ7M0K9.png&quot; rel=&quot;nofollow&quot; target=&quot;_NEW&quot;&gt;\nhttp://i.imgur.com/zQ7M0K9.png&lt;/a&gt; &lt;a href=&quot;\nhttp://i.imgur.com/XscWJAz.png&quot; rel=&quot;nofollow&quot; target=&quot;_NEW&quot;&gt;\nhttp://i.imgur.com/XscWJAz.png&lt;/a&gt; &lt;a href=&quot;\nhttp://i.imgur.com/hX4jVuY.png&quot; rel=&quot;nofollow&quot; target=&quot;_NEW&quot;&gt;\nhttp://i.imgur.com/hX4jVuY.png&lt;/a&gt; &lt;a href=&quot;\nhttp://i.imgur.com/wqD2EPm.png&quot; rel=&quot;nofollow&quot; target=&quot;_NEW&quot;&gt;\nhttp://i.imgur.com/wqD2EPm.png&lt;/a&gt; &lt;a href=&quot;\nhttp://i.imgur.com/CR8Me70.png&quot; rel=&quot;nofollow&quot; target=&quot;_NEW&quot;&gt;\nhttp://i.imgur.com/CR8Me70.png&lt;/a&gt; &lt;a href=&quot;\nhttp://i.imgur.com/6qbUQLb.png&quot; rel=&quot;nofollow&quot; target=&quot;_NEW&quot;&gt;\nhttp://i.imgur.com/6qbUQLb.png&lt;/a&gt; &lt;a href=&quot;\nhttp://i.imgur.com/1PBpIe5.png&quot; rel=&quot;nofollow&quot; target=&quot;_NEW&quot;&gt;\nhttp://i.imgur.com/1PBpIe5.png&lt;/a&gt; &lt;a href=&quot;\nhttp://i.imgur.com/p9eF8bW.png&quot; rel=&quot;nofollow&quot; target=&quot;_NEW&quot;&gt;\nhttp://i.imgur.com/p9eF8bW.png&lt;/a&gt; &lt;a href=&quot;\nhttp://i.imgur.com/NvOJrT5.png&quot; rel=&quot;nofollow&quot; target=&quot;_NEW&quot;&gt;\nhttp://i.imgur.com/NvOJrT5.png&lt;/a&gt; &lt;a href=&quot;\nhttp://i.imgur.com/JexWOKH.png&quot; rel=&quot;nofollow&quot; target=&quot;_NEW&quot;&gt;\nhttp://i.imgur.com/JexWOKH.png&lt;/a&gt; &lt;a href=&quot;\nhttp://i.imgur.com/gB8QVkC.png&quot; rel=&quot;nofollow&quot; target=&quot;_NEW&quot;&gt;\nhttp://i.imgur.com/gB8QVkC.png&lt;/a&gt;","torrent":{"xt":"urn:btih:c95acc96f4a651670446b38633a34a2bfefd4167","amp;dn":"Romeo+Ranjha+%282014%29+720p+-+x264+-+Esub+%5BDDR+ExclusivE%5D","amp;tr":["udp%3A%2F%2Ftracker.openbittorrent.com%3A80","udp%3A%2F%2Fopen.demonii.com%3A1337","udp%3A%2F%2Ftracker.coppersurfer.tk%3A6969","udp%3A%2F%2Fexodus.desync.com%3A6969"],"infoHash":"c95acc96f4a651670446b38633a34a2bfefd4167","infoHashBuffer":{"type":"Buffer","data":[201,90,204,150,244,166,81,103,4,70,179,134,51,163,74,43,254,253,65,103]},"announce":[],"urlList":[]}}